<?xml version="1.0" standalone="no"?>
<!DOCTYPE svg PUBLIC "-//W3C//DTD SVG 20010904//EN"
 "http://www.w3.org/TR/2001/REC-SVG-20010904/DTD/svg10.dtd">
<svg version="1.0" xmlns="http://www.w3.org/2000/svg"
 width="558.000000pt" height="558.000000pt" viewBox="0 0 558.000000 558.000000"
 preserveAspectRatio="xMidYMid meet">
<metadata>
Created by potrace 1.11, written by Peter Selinger 2001-2013
</metadata>
<g transform="translate(0.000000,558.000000) scale(0.100000,-0.100000)"
fill="#000000" stroke="none">
<path d="M4707 5133 c-2 -4 -4 -34 -5 -66 -1 -85 -17 -120 -75 -173 -103 -92
-252 -175 -499 -277 l-108 -45 -5 32 c-7 45 -33 259 -40 342 -8 87 -17 104
-45 87 -24 -16 -33 -17 -25 -3 3 6 -1 7 -10 3 -10 -3 -13 -8 -6 -12 6 -4 -51
-51 -127 -104 -75 -54 -148 -105 -161 -115 -14 -9 -31 -16 -38 -16 -7 1 -11
-2 -8 -6 7 -11 -20 -31 -36 -27 -8 2 -10 2 -6 -1 9 -5 -11 -32 -25 -32 -5 0
-6 5 -2 12 4 7 3 8 -5 4 -6 -4 -9 -11 -6 -16 3 -5 1 -12 -5 -15 -7 -4 -10 12
-9 45 1 28 -2 55 -7 60 -6 6 -36 -3 -79 -25 -39 -19 -76 -35 -83 -35 -7 0 -20
16 -28 36 -15 35 -16 36 -62 30 -90 -11 -668 -17 -790 -9 l-124 8 -19 -37
c-11 -21 -23 -38 -28 -38 -4 0 -38 14 -74 30 -89 40 -94 39 -99 -15 -2 -25 1
-45 6 -45 5 0 7 -3 4 -6 -5 -5 -69 35 -190 118 -20 14 -35 28 -33 30 3 3 -1 5
-8 5 -21 0 -97 55 -90 66 3 5 2 7 -4 4 -11 -7 -129 71 -126 84 2 4 -3 6 -11 3
-8 -3 -17 -1 -21 5 -20 33 -35 -2 -40 -92 -5 -109 -28 -352 -34 -364 -4 -8
-45 5 -136 44 -72 30 -152 64 -179 75 -60 23 -88 42 -79 52 4 4 -1 4 -11 0
-11 -4 -28 1 -46 15 -16 11 -32 21 -35 21 -18 0 -95 63 -89 72 4 6 3 8 -2 5
-13 -7 -46 19 -83 67 -27 33 -31 47 -31 97 0 62 -11 79 -37 58 -21 -18 -55
-96 -59 -139 -2 -19 -6 -45 -9 -57 -7 -30 15 -177 27 -184 6 -4 7 -12 4 -18
-4 -6 -2 -11 5 -11 7 0 10 -11 7 -30 -3 -16 -1 -30 4 -30 4 0 8 -11 8 -25 0
-14 5 -25 11 -25 6 0 9 -7 6 -15 -4 -8 -2 -17 4 -21 6 -3 8 -12 6 -18 -3 -7 1
-26 8 -42 7 -16 27 -72 45 -124 18 -52 38 -108 45 -125 7 -16 25 -61 40 -100
15 -38 34 -77 42 -86 12 -15 3 -20 -101 -48 -64 -18 -120 -30 -126 -26 -5 3
-10 2 -10 -3 0 -5 -39 -19 -88 -32 -48 -12 -124 -33 -170 -47 -46 -13 -93 -25
-105 -27 -21 -3 -39 -36 -20 -36 5 0 22 -12 39 -27 18 -16 37 -29 43 -31 7 -1
25 -11 39 -21 15 -10 54 -35 87 -56 133 -84 306 -202 315 -215 3 -4 11 -9 18
-11 6 -2 -41 -23 -105 -47 -65 -24 -127 -47 -138 -52 -50 -24 -188 -69 -195
-65 -5 3 -10 2 -12 -2 -1 -5 -25 -16 -53 -26 -94 -35 -330 -119 -363 -130 -18
-6 -31 -15 -29 -21 2 -6 59 -26 128 -44 68 -19 160 -44 204 -57 189 -54 518
-146 610 -170 55 -14 107 -29 115 -32 8 -3 18 -6 22 -5 3 1 11 -5 18 -13 9
-11 8 -20 -8 -39 -11 -14 -21 -23 -24 -21 -3 3 -5 -1 -5 -8 0 -10 -78 -133
-94 -147 -3 -3 -21 -27 -39 -55 -19 -27 -42 -59 -52 -69 -10 -11 -18 -26 -18
-34 0 -8 -6 -12 -14 -9 -9 4 -13 1 -10 -6 2 -7 -36 -69 -85 -137 -50 -69 -122
-170 -161 -225 -40 -55 -106 -147 -147 -205 -41 -58 -98 -139 -126 -180 -28
-41 -56 -79 -64 -83 -7 -4 -13 -15 -13 -22 0 -8 -5 -15 -12 -15 -9 0 -9 -3 0
-12 8 -8 15 -8 24 -1 7 6 24 13 38 16 28 6 158 43 300 87 52 15 183 54 290 85
107 31 206 60 220 65 37 12 137 41 152 44 7 2 20 5 28 9 50 18 204 56 211 51
5 -3 9 0 9 5 0 6 7 11 15 11 18 0 18 4 0 -100 -9 -47 -17 -99 -20 -117 -2 -18
-9 -60 -15 -93 -6 -34 -13 -73 -15 -88 -3 -15 -11 -61 -19 -102 -9 -41 -32
-167 -51 -280 -20 -113 -39 -215 -42 -228 -6 -25 16 -31 39 -9 8 6 21 17 29
22 50 32 142 93 486 322 234 157 387 252 394 247 7 -4 9 -3 5 4 -7 11 26 35
38 27 3 -3 4 -2 1 1 -2 4 12 20 32 35 34 28 58 40 37 19 -6 -6 -7 -47 -3 -107
4 -54 10 -176 13 -272 7 -181 23 -461 30 -521 3 -19 8 -61 11 -94 5 -44 13
-64 32 -82 53 -49 294 -78 454 -54 169 24 199 54 199 196 0 49 5 202 10 339 6
138 14 330 18 428 l7 178 48 -31 c29 -18 45 -35 41 -42 -4 -6 -3 -8 3 -5 12 8
65 -17 83 -38 7 -8 16 -15 21 -15 5 0 64 -35 131 -78 68 -43 175 -112 240
-153 64 -40 114 -78 111 -83 -4 -5 -1 -6 5 -2 10 6 123 -60 130 -76 2 -5 8 -8
12 -8 9 0 201 -118 210 -129 10 -12 40 -11 40 1 0 7 -9 56 -20 108 -96 451
-183 900 -176 907 2 3 80 -16 173 -42 92 -26 197 -55 233 -65 36 -9 90 -25
120 -34 30 -9 66 -19 79 -22 29 -6 436 -122 578 -164 103 -31 133 -36 133 -22
0 5 -98 140 -157 217 -8 10 -35 47 -144 195 -31 41 -87 117 -125 168 -38 51
-68 98 -66 105 2 7 1 9 -3 5 -11 -10 -217 270 -209 284 4 6 3 8 -4 4 -11 -7
-79 82 -74 97 1 5 -1 6 -6 3 -4 -2 -19 12 -32 32 -14 20 -27 39 -30 42 -15 13
-64 83 -54 77 6 -3 11 0 11 7 0 8 -7 12 -15 8 -9 -3 -13 -1 -9 5 4 6 17 13 29
16 13 3 90 26 172 51 82 25 154 42 159 39 6 -3 7 -1 4 4 -4 7 9 14 31 19 41 8
41 8 62 17 28 11 175 57 195 60 11 2 49 13 85 24 68 23 148 46 165 49 6 0 17
4 25 7 41 18 135 47 151 47 26 0 34 21 10 27 -11 3 -18 9 -15 14 3 5 -1 6 -8
4 -8 -3 -162 44 -343 105 -182 61 -370 124 -419 140 -49 16 -94 34 -98 38 -6
6 12 25 42 47 44 32 53 35 68 24 15 -13 16 -12 4 3 -12 15 -3 24 80 78 51 34
101 69 110 77 9 8 22 12 29 7 8 -4 10 -3 5 4 -4 7 -3 12 2 12 4 0 17 8 28 18
29 26 84 64 84 57 0 -3 16 9 35 26 42 39 44 56 8 65 -16 4 -100 26 -188 49
-88 23 -209 55 -270 71 -60 15 -111 31 -113 35 -2 5 -10 5 -19 2 -11 -4 -14
-2 -9 5 4 7 15 12 24 12 12 0 13 3 5 8 -10 6 -1 36 33 123 77 192 169 512 180
628 3 31 0 85 -6 121 -7 36 -13 75 -14 87 0 11 -4 19 -7 17 -7 -4 -43 68 -40
81 1 6 -1 7 -5 3 -4 -4 -13 -3 -20 3 -7 5 -14 6 -17 2z m-3857 -388 c14 -19
14 -19 -2 -6 -10 7 -18 18 -18 24 0 6 1 8 3 6 1 -2 9 -13 17 -24z m910 -15 c6
-11 8 -20 6 -20 -3 0 -10 9 -16 20 -6 11 -8 20 -6 20 3 0 10 -9 16 -20z m-85
-2250 c-3 -5 -12 -10 -18 -10 -7 0 -6 4 3 10 19 12 23 12 15 0z m-435 -294 c0
-2 -8 -10 -17 -17 -16 -13 -17 -12 -4 4 13 16 21 21 21 13z m1187 -408 c-3 -8
-6 -5 -6 6 -1 11 2 17 5 13 3 -3 4 -12 1 -19z"/>
<path d="M1086 2754 c-5 -14 -4 -15 9 -4 17 14 19 20 6 20 -5 0 -12 -7 -15
-16z"/>
</g>
</svg>
